{"title":"The Siege of Jadotville 2016 1080p WEBRip HEVC DD5.1 x265","uid":16045599,"size":1538846903,"categoryP":"video","categoryS":"hd___movies","magnet":"?xt=urn:btih:0beda76741ae9026a4e8cbf6534974f931af4296&amp;dn=The+Siege+of+Jadotville+2016+1080p+WEBRip+HEVC+DD5.1+x265&amp;tr=udp%3A%2F%2Ftracker.leechers-paradise.org%3A6969&amp;tr=udp%3A%2F%2Fzer0day.ch%3A1337&amp;tr=udp%3A%2F%2Fopen.demonii.com%3A1337&amp;tr=udp%3A%2F%2Ftracker.coppersurfer.tk%3A6969&amp;tr=udp%3A%2F%2Fexodus.desync.com%3A6969","seeders":15,"leechers":14,"uploader":"nayhtut","files":1,"time":1476562462,"description":"[Screenshots Gallery Link]\r\n\r\n[https://postimg.org/gallery/2my13l8em]\r\n\r\n\r\nThe Siege of Jadotville 2016 1080p WEBRip DD5.1 x264-SH0W(5.41 GB)\r\n\r\n\r\nComplete name: The.Siege.of.Jadotville.2016.1080p.WEBRip.HEVC.DD5.1.x265.mkv\r\nFormat                                   : Matroska\r\nFormat version                           : Version 4 / Version 2\r\nFile size                                : 1.43 GiB\r\nDuration                                 : 1h 48mn\r\nOverall bit rate                         : 1 892 Kbps\r\nEncoded date                             : UTC 2016-10-15 00:57:24\r\nWriting library                          : libebml v1.3.4 + libmatroska v1.4.5\r\nDURATION                                 : 01:46:59.083000000\r\n\r\nVideo\r\n\r\nID                                       : 1\r\nFormat                                   : V_MPEGH/ISO/HEVC\r\nCodec ID                                 : V_MPEGH/ISO/HEVC\r\nDuration                                 : 1h 48mn\r\nBit rate                                 : 1 406 Kbps\r\nWidth                                    : 1 920 pixels\r\nHeight                                   : 800 pixels\r\nDisplay aspect ratio                     : 2.40:1\r\nFrame rate                               : 23.976 fps\r\nBits/(Pixel*Frame)                       : 0.038\r\nStream size                              : 1.07 GiB (74%)\r\nTitle                                    : The.Siege.of.Jadotville.2016.1080p.WEBRip.HEVC.DD5.1.x265\r\nLanguage                                 : English\r\nDefault                                  : Yes\r\nForced                                   : No\r\nDURATION                                 : 01:48:26.292000000\r\n\r\nAudio\r\n\r\nID                                       : 2\r\nFormat                                   : AC-3\r\nFormat/Info                              : Audio Coding 3\r\nMode extension                           : CM (complete main)\r\nFormat settings, Endianness              : Big\r\nCodec ID                                 : A_AC3\r\nDuration                                 : 1h 48mn\r\nBit rate mode                            : Constant\r\nBit rate                                 : 448 Kbps\r\nChannel(s)                               : 6 channels\r\nChannel positions                        : Front: L C R, Side: L R, LFE\r\nSampling rate                            : 48.0 KHz\r\nBit depth                                : 16 bits\r\nCompression mode                         : Lossy\r\nStream size                              : 347 MiB (24%)\r\nTitle                                    : AC-3 5.1\r\nLanguage                                 : English\r\nDefault                                  : Yes\r\nForced                                   : No\r\n\r\nText\r\n\r\nID                                       : 3\r\nFormat                                   : UTF-8\r\nCodec ID                                 : S_TEXT/UTF8\r\nCodec ID/Info                            : UTF-8 Plain Text\r\nTitle                                    : English SDH\r\nLanguage                                 : English","torrent":{"xt":"urn:btih:0beda76741ae9026a4e8cbf6534974f931af4296","amp;dn":"The+Siege+of+Jadotville+2016+1080p+WEBRip+HEVC+DD5.1+x265","amp;tr":["udp%3A%2F%2Ftracker.leechers-paradise.org%3A6969","udp%3A%2F%2Fzer0day.ch%3A1337","udp%3A%2F%2Fopen.demonii.com%3A1337","udp%3A%2F%2Ftracker.coppersurfer.tk%3A6969","udp%3A%2F%2Fexodus.desync.com%3A6969"],"infoHash":"0beda76741ae9026a4e8cbf6534974f931af4296","infoHashBuffer":{"type":"Buffer","data":[11,237,167,103,65,174,144,38,164,232,203,246,83,73,116,249,49,175,66,150]},"announce":[],"urlList":[]}}